HIERARCHY
ROOT Root
{
  OFFSET 0.0 0.0 0.0
  CHANNELS 6 Xposition Yposition Zposition Zrotation Yrotation Xrotation
  JOINT Hips
  {
    OFFSET 0.0 100.0 0.0
    CHANNELS 6 Xposition Yposition Zposition Zrotation Yrotation Xrotation
    JOINT Spine1
    {
      OFFSET -0.013727 5.003763 -0.053727
      CHANNELS 3 Zrotation Yrotation Xrotation
      JOINT Spine2
      {
        OFFSET -0.0 7.125301 -0.029825
        CHANNELS 3 Zrotation Yrotation Xrotation
        JOINT Chest
        {
          OFFSET -1e-06 7.550063 -0.815971
          CHANNELS 3 Zrotation Yrotation Xrotation
          JOINT Neck1
          {
            OFFSET -0.181677 26.311295 -0.553348
            CHANNELS 3 Zrotation Yrotation Xrotation
            JOINT Neck2
            {
              OFFSET -3e-06 7.709397 2.302585
              CHANNELS 3 Zrotation Yrotation Xrotation
              JOINT Head
              {
                OFFSET -5e-06 6.128916 1.953709
                CHANNELS 3 Zrotation Yrotation Xrotation
                JOINT HeadEnd
                {
                  OFFSET 0.003598 16.065403 -1.835379
                  CHANNELS 3 Zrotation Yrotation Xrotation
                }
                JOINT Jaw
                {
                  OFFSET 0.002637 0.475592 3.094941
                  CHANNELS 3 Zrotation Yrotation Xrotation
                }
                JOINT LeftEye
                {
                  OFFSET 3.206381 5.380205 7.586883
                  CHANNELS 3 Zrotation Yrotation Xrotation
                }
                JOINT RightEye
                {
                  OFFSET -3.22244 5.361869 7.558234
                  CHANNELS 3 Zrotation Yrotation Xrotation
                }
              }
            }
          }
          JOINT LeftShoulder
          {
            OFFSET 1.621652 23.237164 5.113413
            CHANNELS 3 Zrotation Yrotation Xrotation
            JOINT LeftArm
            {
              OFFSET 14.919846 2e-06 -5.502326
              CHANNELS 3 Zrotation Yrotation Xrotation
              JOINT LeftForeArm
              {
                OFFSET 28.739307 0.0 -0.002588
                CHANNELS 3 Zrotation Yrotation Xrotation
                JOINT LeftHand
                {
                  OFFSET 27.093981 -1e-06 0.002609
                  CHANNELS 3 Zrotation Yrotation Xrotation
                  JOINT LeftHandThumb1
                  {
                    OFFSET 2.276482 -1.392045 3.191413
                    CHANNELS 3 Zrotation Yrotation Xrotation
                    JOINT LeftHandThumb2
                    {
                      OFFSET 4.012836 -1.828127 1.641654
                      CHANNELS 3 Zrotation Yrotation Xrotation
                      JOINT LeftHandThumb3
                      {
                        OFFSET 2.798515 0.0 -3e-06
                        CHANNELS 3 Zrotation Yrotation Xrotation
                        JOINT LeftHandThumbEnd
                        {
                          OFFSET 3.180793 -4e-06 4e-06
                          CHANNELS 3 Zrotation Yrotation Xrotation
                        }
                      }
                    }
                  }
                  JOINT LeftHandIndex1
                  {
                    OFFSET 3.247555 -0.531998 2.296169
                    CHANNELS 3 Zrotation Yrotation Xrotation
                    JOINT LeftHandIndex2
                    {
                      OFFSET 6.364578 0.01206 0.1786
                      CHANNELS 3 Zrotation Yrotation Xrotation
                      JOINT LeftHandIndex3
                      {
                        OFFSET 3.662364 0.0 0.0
                        CHANNELS 3 Zrotation Yrotation Xrotation
                        JOINT LeftHandIndex4
                        {
                          OFFSET 2.329242 4e-06 4e-06
                          CHANNELS 3 Zrotation Yrotation Xrotation
                          JOINT LeftHandIndexEnd
                          {
                            OFFSET 2.759615 -0.180537 -0.113024
                            CHANNELS 3 Zrotation Yrotation Xrotation
                          }
                        }
                      }
                    }
                  }
                  JOINT LeftHandMiddle1
                  {
                    OFFSET 3.163495 0.240981 1.000332
                    CHANNELS 3 Zrotation Yrotation Xrotation
                    JOINT LeftHandMiddle2
                    {
                      OFFSET 6.19078 -0.259278 -1.002548
                      CHANNELS 3 Zrotation Yrotation Xrotation
                      JOINT LeftHandMiddle3
                      {
                        OFFSET 4.35652 -4e-06 -1e-06
                        CHANNELS 3 Zrotation Yrotation Xrotation
                        JOINT LeftHandMiddle4
                        {
                          OFFSET 2.996877 -8e-06 0.0
                          CHANNELS 3 Zrotation Yrotation Xrotation
                          JOINT LeftHandMiddleEnd
                          {
                            OFFSET 2.304287 -0.294569 -0.031741
                            CHANNELS 3 Zrotation Yrotation Xrotation
                          }
                        }
                      }
                    }
                  }
                  JOINT LeftHandRing1
                  {
                    OFFSET 2.882643 -0.053652 -0.322543
                    CHANNELS 3 Zrotation Yrotation Xrotation
                    JOINT LeftHandRing2
                    {
                      OFFSET 5.854541 -0.486202 -1.373841
                      CHANNELS 3 Zrotation Yrotation Xrotation
                      JOINT LeftHandRing3
                      {
                        OFFSET 4.350578 0.0 3e-06
                        CHANNELS 3 Zrotation Yrotation Xrotation
                        JOINT LeftHandRing4
                        {
                          OFFSET 2.651321 7e-06 2e-06
                          CHANNELS 3 Zrotation Yrotation Xrotation
                          JOINT LeftHandRingEnd
                          {
                            OFFSET 1.936105 0.077687 -7.1e-05
                            CHANNELS 3 Zrotation Yrotation Xrotation
                          }
                        }
                      }
                    }
                  }
                  JOINT LeftHandPinky1
                  {
                    OFFSET 2.8655 -0.310005 -1.600378
                    CHANNELS 3 Zrotation Yrotation Xrotation
                    JOINT LeftHandPinky2
                    {
                      OFFSET 5.087849 -1.331141 -1.77123
                      CHANNELS 3 Zrotation Yrotation Xrotation
                      JOINT LeftHandPinky3
                      {
                        OFFSET 3.070974 4e-06 0.0
                        CHANNELS 3 Zrotation Yrotation Xrotation
                        JOINT LeftHandPinky4
                        {
                          OFFSET 1.549672 0.0 1e-06
                          CHANNELS 3 Zrotation Yrotation Xrotation
                          JOINT LeftHandPinkyEnd
                          {
                            OFFSET 1.944893 -0.157802 0.057219
                            CHANNELS 3 Zrotation Yrotation Xrotation
                          }
                        }
                      }
                    }
                  }
                }
              }
            }
          }
          JOINT RightShoulder
          {
            OFFSET -1.380118 23.180309 5.214158
            CHANNELS 3 Zrotation Yrotation Xrotation
            JOINT RightArm
            {
              OFFSET -15.037196 1.2e-05 -5.545604
              CHANNELS 3 Zrotation Yrotation Xrotation
              JOINT RightForeArm
              {
                OFFSET -28.736639 2e-06 -0.002597
                CHANNELS 3 Zrotation Yrotation Xrotation
                JOINT RightHand
                {
                  OFFSET -27.133619 -0.0 0.002613
                  CHANNELS 3 Zrotation Yrotation Xrotation
                  JOINT RightHandThumb1
                  {
                    OFFSET -2.274032 -1.383988 3.163127
                    CHANNELS 3 Zrotation Yrotation Xrotation
                    JOINT RightHandThumb2
                    {
                      OFFSET -4.011429 -1.827466 1.640914
                      CHANNELS 3 Zrotation Yrotation Xrotation
                      JOINT RightHandThumb3
                      {
                        OFFSET -2.794935 -4e-06 -3e-06
                        CHANNELS 3 Zrotation Yrotation Xrotation
                        JOINT RightHandThumbEnd
                        {
                          OFFSET -3.183852 4e-06 1e-06
                          CHANNELS 3 Zrotation Yrotation Xrotation
                        }
                      }
                    }
                  }
                  JOINT RightHandIndex1
                  {
                    OFFSET -3.253266 -0.520057 2.282866
                    CHANNELS 3 Zrotation Yrotation Xrotation
                    JOINT RightHandIndex2
                    {
                      OFFSET -6.341917 0.012471 0.178266
                      CHANNELS 3 Zrotation Yrotation Xrotation
                      JOINT RightHandIndex3
                      {
                        OFFSET -3.654871 -8e-06 -0.0
                        CHANNELS 3 Zrotation Yrotation Xrotation
                        JOINT RightHandIndex4
                        {
                          OFFSET -2.327586 0.0 1e-06
                          CHANNELS 3 Zrotation Yrotation Xrotation
                          JOINT RightHandIndexEnd
                          {
                            OFFSET -2.76179 -0.180656 -0.113078
                            CHANNELS 3 Zrotation Yrotation Xrotation
                          }
                        }
                      }
                    }
                  }
                  JOINT RightHandMiddle1
                  {
                    OFFSET -3.168106 0.246593 1.00103
                    CHANNELS 3 Zrotation Yrotation Xrotation
                    JOINT RightHandMiddle2
                    {
                      OFFSET -6.180828 -0.258836 -1.000895
                      CHANNELS 3 Zrotation Yrotation Xrotation
                      JOINT RightHandMiddle3
                      {
                        OFFSET -4.348901 0.0 -0.0
                        CHANNELS 3 Zrotation Yrotation Xrotation
                        JOINT RightHandMiddle4
                        {
                          OFFSET -3.00024 -4e-06 -2e-06
                          CHANNELS 3 Zrotation Yrotation Xrotation
                          JOINT RightHandMiddleEnd
                          {
                            OFFSET -2.30252 -0.29437 -0.031706
                            CHANNELS 3 Zrotation Yrotation Xrotation
                          }
                        }
                      }
                    }
                  }
                  JOINT RightHandRing1
                  {
                    OFFSET -2.88569 -0.067952 -0.308858
                    CHANNELS 3 Zrotation Yrotation Xrotation
                    JOINT RightHandRing2
                    {
                      OFFSET -5.854198 -0.48613 -1.373731
                      CHANNELS 3 Zrotation Yrotation Xrotation
                      JOINT RightHandRing3
                      {
                        OFFSET -4.33881 -4e-06 -0.0
                        CHANNELS 3 Zrotation Yrotation Xrotation
                        JOINT RightHandRing4
                        {
                          OFFSET -2.654903 -4e-06 4e-06
                          CHANNELS 3 Zrotation Yrotation Xrotation
                          JOINT RightHandRingEnd
                          {
                            OFFSET -1.933568 0.077527 -5.2e-05
                            CHANNELS 3 Zrotation Yrotation Xrotation
                          }
                        }
                      }
                    }
                  }
                  JOINT RightHandPinky1
                  {
                    OFFSET -2.866425 -0.342796 -1.584145
                    CHANNELS 3 Zrotation Yrotation Xrotation
                    JOINT RightHandPinky2
                    {
                      OFFSET -5.091371 -1.332055 -1.772385
                      CHANNELS 3 Zrotation Yrotation Xrotation
                      JOINT RightHandPinky3
                      {
                        OFFSET -3.062664 -4e-06 1e-06
                        CHANNELS 3 Zrotation Yrotation Xrotation
                        JOINT RightHandPinky4
                        {
                          OFFSET -1.546529 4e-06 -2e-06
                          CHANNELS 3 Zrotation Yrotation Xrotation
                          JOINT RightHandPinkyEnd
                          {
                            OFFSET -1.945119 -0.157718 0.057211
                            CHANNELS 3 Zrotation Yrotation Xrotation
                          }
                        }
                      }
                    }
                  }
                }
              }
            }
          }
        }
      }
    }
    JOINT LeftLeg
    {
      OFFSET 10.043214 -8.434526 2.595655
      CHANNELS 3 Zrotation Yrotation Xrotation
      JOINT LeftShin
      {
        OFFSET -1e-06 -43.221752 -0.802913
        CHANNELS 3 Zrotation Yrotation Xrotation
        JOINT LeftFoot
        {
          OFFSET 1e-06 -42.155094 -3.481523
          CHANNELS 3 Zrotation Yrotation Xrotation
          JOINT LeftToeBase
          {
            OFFSET 0.0 -5.059472 13.231529
            CHANNELS 3 Zrotation Yrotation Xrotation
            JOINT LeftToeEnd
            {
              OFFSET -0.009607 -1.647619 6.513017
              CHANNELS 3 Zrotation Yrotation Xrotation
            }
          }
        }
      }
    }
    JOINT RightLeg
    {
      OFFSET -10.047278 -8.29526 2.620317
      CHANNELS 3 Zrotation Yrotation Xrotation
      JOINT RightShin
      {
        OFFSET 1e-06 -43.362206 -0.805556
        CHANNELS 3 Zrotation Yrotation Xrotation
        JOINT RightFoot
        {
          OFFSET 2e-06 -42.117393 -3.478398
          CHANNELS 3 Zrotation Yrotation Xrotation
          JOINT RightToeBase
          {
            OFFSET -0.0 -5.079609 13.284196
            CHANNELS 3 Zrotation Yrotation Xrotation
            JOINT RightToeEnd
            {
              OFFSET 0.009532 -1.634378 6.460591
              CHANNELS 3 Zrotation Yrotation Xrotation
            }
          }
        }
      }
    }
  }
}
MOTION
Frames: 4
Frame Time: 0.03333333333333333
0.0 0.0 0.0 0.0 -0.0 0.0 -14.517864 58.943176 90.628784 -8.112316 -0.923628 78.716927 0.848663 2.009399 8.941144 -0.395129 1.310325 0.057612 -3.583024 0.059307 14.33473 -6.325231 4.636671 1.717771 -0.002256 1.069715 -3.5656 -4.693062 -1.845035 5.463264 7.7e-05 -2.3e-05 5e-06 0.054354 0.042142 -0.161419 1.148875 -3.563585 -10.722509 -1.061986 3.686856 -10.61443 5.038848 -5.940407 9.453195 3.319039 -56.271317 -22.023224 -1.253359 -32.848309 0.545763 87.784157 -1.468369 -8.177943 -5.882102 9.861278 0.702589 -10.936864 -0.360576 7.1562 2e-06 8.774818 -2e-06 -14.424303 17.873688 6.272596 -1.844031 2.498502 -2.507277 -10.163592 4.67894 4.621106 -20.976009 -5e-06 4e-06 -21.226273 2.451694 -3.593996 0.0 -6e-06 -1e-06 -1.362679 2.240798 -0.746324 -21.334902 0.584907 3.008322 -13.821206 -4e-06 3e-06 -23.887157 -0.249079 -0.839481 -58.831795 1.992457 -1.340787 -0.294024 1.679686 0.833255 -14.218198 0.093214 1.30058 -34.212029 -0.287566 0.967172 -20.033195 0.964534 1.212844 -0.0 0.0 0.0 -3.440385 0.788233 0.501656 -15.928174 -3.167309 2.999704 -6.338823 -2e-06 1e-06 -18.123434 3.648178 -4.905665 -4e-06 0.0 -2e-06 -12.431312 10.863325 1.814936 16.802841 62.388439 -10.624725 1.514279 32.175793 0.411857 -76.79203 3.430405 0.682066 2.24354 -5.255032 -3.180155 14.282876 -0.826595 6.952497 -2e-06 -12.690593 1e-06 14.234364 -17.383999 3.218634 1.665663 -1.95592 -2.878297 4.727794 -4.170584 4.99392 11.020516 2e-06 -2e-06 12.109038 -3.735711 -2.866782 -1e-06 -0.0 1e-06 1.291983 -1.928548 -1.498088 14.800112 0.567467 3.865604 14.242558 -1.341734 -6.660653 19.631945 0.143926 -0.648245 49.588642 -0.549702 -5.52637 0.353028 -1.511149 -0.03194 20.222771 3.684305 2.316627 18.787252 4e-06 -1e-06 10.751617 -0.479869 1.397905 0.0 -0.0 -0.0 3.273804 0.305946 -0.58011 21.48679 11.830362 2.266129 8.162919 2e-06 -0.0 18.399063 -3.798983 -4.94057 3e-06 0.0 -1e-06 -3.690381 15.978748 -68.50721 -0.690746 -2.704646 84.836624 -8.493765 -5.632991 -33.878025 1.954431 -1.427767 -35.636841 0.0 0.0 3e-06 5.288314 -5.357469 -69.752762 0.860264 3.43552 80.077484 -2.018264 9.537293 -37.490089 -1.103601 0.24012 -31.765612 -0.0 -0.0 -2e-06 
0.0 0.0 0.0 0.0 -0.0 0.0 -15.288947 59.601463 89.482803 -7.16864 -0.6781 78.938599 0.706443 1.882636 9.264258 -0.373474 1.076938 0.268781 -3.675444 -0.190924 14.354586 -5.729691 4.53214 0.910155 0.021375 1.015809 -3.545489 -4.652408 -1.925771 5.249549 7.8e-05 -2.3e-05 6e-06 0.068418 0.045932 -0.1616 1.157627 -3.558337 -10.710156 -1.043314 3.690469 -10.610402 5.609205 -6.398767 9.131618 5.92525 -55.468552 -23.469095 -1.390832 -32.684422 0.672602 87.197029 -0.485172 -7.84515 -5.882104 9.861289 0.70259 -10.936868 -0.360576 7.156205 -2e-06 8.774826 -3e-06 -14.594472 17.954145 6.256655 -1.844031 2.498505 -2.507278 -10.163596 4.678943 4.621106 -20.976017 -5e-06 4e-06 -21.226282 2.451697 -3.593999 1e-06 -6e-06 -0.0 -1.362681 2.240797 -0.746323 -21.334906 0.584907 3.008325 -13.821211 -3e-06 3e-06 -23.887167 -0.249078 -0.839482 -59.081615 2.062405 -1.356978 -0.294024 1.679687 0.833256 -14.218205 0.093214 1.300581 -34.21204 -0.287564 0.967173 -20.033209 0.964536 1.212846 0.0 -1e-06 -0.0 -3.440388 0.788234 0.501655 -15.928183 -3.167312 2.999709 -6.338826 -1e-06 2e-06 -18.123444 3.648183 -4.905671 -6e-06 0.0 -3e-06 -12.524216 10.721116 1.603081 14.907022 62.358139 -12.707029 1.430691 32.396046 0.34655 -76.937233 3.443369 1.025378 2.243539 -5.255037 -3.180157 14.282887 -0.826591 6.952503 -2e-06 -12.690601 -2e-06 14.368987 -17.500628 3.175762 1.665665 -1.955922 -2.878298 4.727801 -4.170585 4.993921 11.020524 3e-06 0.0 12.109046 -3.735716 -2.866783 0.0 -0.0 0.0 1.291984 -1.928549 -1.498088 14.800125 0.56747 3.865608 14.242568 -1.341737 -6.660654 19.631962 0.143925 -0.648241 49.739841 -0.588861 -5.533743 0.353028 -1.51115 -0.031941 20.22279 3.68431 2.316633 18.78727 5e-06 3e-06 10.751627 -0.479868 1.397907 -1e-06 0.0 -0.0 3.273808 0.305948 -0.58011 21.486816 11.83037 2.266137 8.162928 2e-06 1e-06 18.399078 -3.798983 -4.940573 3e-06 -0.0 -1e-06 -3.905413 15.790101 -70.218033 -0.754519 -2.74048 85.174614 -8.356205 -5.868821 -33.902725 1.929887 -1.433293 -35.269756 0.0 -0.0 3e-06 5.142984 -4.907422 -71.241989 0.771272 3.11031 81.01104 -1.75462 8.82843 -37.101528 -1.103352 0.242479 -31.795542 -0.0 0.0 -2e-06 
0.0 0.0 0.0 0.0 -0.0 0.0 -16.024479 60.192848 88.265694 -6.06217 -0.369735 79.254463 0.557651 1.7137 9.616534 -0.337371 0.835951 0.484325 -3.73477 -0.464165 14.360546 -4.975657 4.45272 0.033472 0.010392 0.937161 -3.520734 -4.59212 -2.062958 4.984896 7.8e-05 -2.3e-05 6e-06 0.081903 0.049208 -0.155404 1.159725 -3.552149 -10.68388 -1.019206 3.691961 -10.59509 6.272902 -6.687646 8.836881 8.528036 -54.630093 -24.998787 -1.647564 -32.968895 0.846975 86.735191 0.335575 -7.446704 -5.8821 9.861276 0.702589 -10.936857 -0.360574 7.156197 1e-06 8.774817 -0.0 -14.757316 18.029896 6.223547 -1.844031 2.498503 -2.507276 -10.163588 4.67894 4.621104 -20.976 -4e-06 2e-06 -21.226261 2.451694 -3.593998 1e-06 -6e-06 -0.0 -1.36268 2.240796 -0.746323 -21.334887 0.584908 3.00832 -13.821198 -2e-06 1e-06 -23.887144 -0.249078 -0.839483 -59.285419 2.112275 -1.380372 -0.294024 1.679686 0.833254 -14.218193 0.093215 1.30058 -34.212013 -0.287564 0.967166 -20.033194 0.964534 1.21284 0.0 0.0 0.0 -3.440384 0.788233 0.501655 -15.928168 -3.167306 2.999704 -6.33882 -1e-06 2e-06 -18.123426 3.64818 -4.905668 -4e-06 0.0 -3e-06 -12.562337 10.523265 1.468411 13.024267 61.920658 -14.973276 1.292588 33.295086 0.262225 -77.254639 3.632742 1.671175 2.24354 -5.255035 -3.180156 14.282876 -0.826592 6.952497 -1e-06 -12.690598 -1e-06 14.521631 -17.593987 3.151003 1.665663 -1.95592 -2.878297 4.727793 -4.170585 4.99392 11.020519 2e-06 -1e-06 12.109041 -3.735713 -2.866785 1e-06 -0.0 1e-06 1.291987 -1.928549 -1.498088 14.800114 0.567469 3.865605 14.24256 -1.341735 -6.660655 19.631952 0.143927 -0.648243 49.906403 -0.610637 -5.543045 0.353029 -1.51115 -0.03194 20.222775 3.684309 2.316629 18.787256 5e-06 -0.0 10.751619 -0.479868 1.397905 -1e-06 0.0 -0.0 3.273804 0.305947 -0.58011 21.486799 11.830369 2.266133 8.16292 1e-06 1e-06 18.399067 -3.798982 -4.940571 3e-06 1e-06 -1e-06 -4.116992 15.454364 -72.133354 -0.817679 -2.743181 85.62838 -8.118443 -6.263539 -33.933132 1.911404 -1.443748 -35.014011 0.0 0.0 3e-06 4.938075 -4.628829 -72.915779 0.67308 2.749292 82.124756 -1.375881 8.176259 -36.8223 -1.106844 0.248905 -31.764652 -0.0 0.0 -2e-06 
0.0 0.0 0.0 0.0 -0.0 0.0 -16.724209 60.728836 86.986465 -4.842037 -0.012691 79.621544 0.414902 1.518797 9.979151 -0.303784 0.599697 0.705605 -3.733019 -0.7412 14.387203 -4.119021 4.370112 -0.820345 -0.015874 0.832571 -3.496956 -4.522411 -2.244216 4.680171 7.7e-05 -2.2e-05 6e-06 0.099654 0.05395 -0.148203 1.164364 -3.545499 -10.656816 -0.988764 3.695657 -10.57751 6.998611 -6.868732 8.573359 11.099257 -53.78714 -26.639151 -1.964293 -33.521889 1.046854 86.344681 1.008963 -7.090776 -5.882103 9.861284 0.702589 -10.936867 -0.360576 7.156203 -0.0 8.774823 -3e-06 -14.889916 18.106571 6.201976 -1.844031 2.498505 -2.507277 -10.163595 4.678944 4.621106 -20.976015 -4e-06 1e-06 -21.226276 2.451695 -3.594001 0.0 -6e-06 0.0 -1.362682 2.240798 -0.746324 -21.334904 0.584907 3.008322 -13.821208 -3e-06 1e-06 -23.887159 -0.24908 -0.839482 -59.44442 2.161299 -1.397622 -0.294024 1.679685 0.833256 -14.218204 0.093215 1.30058 -34.212036 -0.287564 0.967171 -20.033207 0.964536 1.212844 0.0 -0.0 -1e-06 -3.440387 0.788233 0.501656 -15.928181 -3.167309 2.999707 -6.338823 -1e-06 1e-06 -18.123442 3.648182 -4.90567 -6e-06 -0.0 -3e-06 -12.578519 10.290809 1.389257 11.170075 61.126579 -17.277023 1.09159 34.641582 0.167164 -77.63192 3.835733 2.53293 2.243538 -5.255033 -3.180156 14.282878 -0.826593 6.952499 -2e-06 -12.690597 -0.0 14.673606 -17.678827 3.146038 1.665662 -1.955921 -2.878297 4.727791 -4.170583 4.993921 11.020517 3e-06 -1e-06 12.109036 -3.735713 -2.866783 0.0 -0.0 1e-06 1.291984 -1.928548 -1.498088 14.800112 0.56747 3.865606 14.242557 -1.341734 -6.660654 19.631945 0.143928 -0.648243 50.094467 -0.618961 -5.551193 0.353028 -1.51115 -0.03194 20.222769 3.684309 2.316629 18.787254 5e-06 0.0 10.751616 -0.479868 1.397906 1e-06 0.0 -0.0 3.273805 0.305947 -0.58011 21.486795 11.830369 2.266133 8.162919 1e-06 1e-06 18.399063 -3.798982 -4.94057 3e-06 0.0 -1e-06 -4.314853 14.968469 -74.184181 -0.873826 -2.709254 86.16404 -7.820492 -6.820757 -33.852486 1.903977 -1.456934 -34.948696 0.0 0.0 3e-06 4.71441 -4.53177 -74.693604 0.575973 2.378283 83.321205 -0.898378 7.508322 -36.605427 -1.114394 0.257771 -31.714136 0.0 0.0 -2e-06 
